<svg xmlns="http://www.w3.org/2000/svg" width="14" height="14" viewBox="0 0 14 14">
  <metadata><?xpacket begin="﻿" id="W5M0MpCehiHzreSzNTczkc9d"?>
<x:xmpmeta xmlns:x="adobe:ns:meta/" x:xmptk="Adobe XMP Core 5.6-c142 79.160924, 2017/07/13-01:06:39        ">
   <rdf:RDF xmlns:rdf="http://www.w3.org/1999/02/22-rdf-syntax-ns#">
      <rdf:Description rdf:about=""/>
   </rdf:RDF>
</x:xmpmeta>
                                                                                                    
                                                                                                    
                                                                                                    
                                                                                                    
                                                                                                    
                                                                                                    
                                                                                                    
                                                                                                    
                                                                                                    
                                                                                                    
                                                                                                    
                                                                                                    
                                                                                                    
                                                                                                    
                                                                                                    
                                                                                                    
                                                                                                    
                                                                                                    
                                                                                                    
                                                                                                    
                           
<?xpacket end="w"?></metadata>
<defs>
    <style>
      .cls-1 {

        fill-rule: evenodd;
      }
    </style>
  </defs>
  <path id="添加" class="cls-1" d="M3166,891.843h12a1,1,0,0,1,1,1v0.313a1,1,0,0,1-1,1h-12a1,1,0,0,1-1-1v-0.313A1,1,0,0,1,3166,891.843Zm5.84-5.843h0.32a1,1,0,0,1,1,1v12a1,1,0,0,1-1,1h-0.32a1,1,0,0,1-1-1V887A1,1,0,0,1,3171.84,886Z" transform="translate(-3165 -886)"/>
</svg>
