<svg xmlns="http://www.w3.org/2000/svg" width="20" height="20" viewBox="0 0 20 20">
  <metadata><?xpacket begin="﻿" id="W5M0MpCehiHzreSzNTczkc9d"?>
<x:xmpmeta xmlns:x="adobe:ns:meta/" x:xmptk="Adobe XMP Core 5.6-c142 79.160924, 2017/07/13-01:06:39        ">
   <rdf:RDF xmlns:rdf="http://www.w3.org/1999/02/22-rdf-syntax-ns#">
      <rdf:Description rdf:about=""/>
   </rdf:RDF>
</x:xmpmeta>
                                                                                                    
                                                                                                    
                                                                                                    
                                                                                                    
                                                                                                    
                                                                                                    
                                                                                                    
                                                                                                    
                                                                                                    
                                                                                                    
                                                                                                    
                                                                                                    
                                                                                                    
                                                                                                    
                                                                                                    
                                                                                                    
                                                                                                    
                                                                                                    
                                                                                                    
                                                                                                    
                           
<?xpacket end="w"?></metadata>
<defs>
    <style>
      .cls-1 {

        fill-rule: evenodd;
      }
    </style>
  </defs>
  <path id="机构" class="cls-1" d="M49.654,918.067l8.222,5.854c0.087,0.09.173,0.18,0.087,0.27a0.219,0.219,0,0,1-.259.181H55.712v6.665h0.952a0.282,0.282,0,0,1,.259.27v3.422a0.283,0.283,0,0,1-.259.271H42.3a0.283,0.283,0,0,1-.259-0.271v-3.422a0.282,0.282,0,0,1,.259-0.27H43.25v-6.665H41.258a0.46,0.46,0,0,1-.26-0.181,0.337,0.337,0,0,1,.087-0.27l8.222-5.854c0.173-.09.26-0.09,0.346,0h0Zm-6.578,14.05v1.8h12.81v-1.8H43.076Zm11.685-1.08v-6.665h-1.9v6.665h1.9Zm-2.856,0v-6.665H50v6.665h1.9Zm-2.942,0v-6.665H47.144v6.665h1.818Zm-2.856,0v-6.665H44.287v6.665h1.819Zm-2.165-7.746H55.02l-5.539-3.963Zm0,0" transform="translate(-39.5 -916.5)"/>
</svg>
