<svg xmlns="http://www.w3.org/2000/svg" width="18" height="18" viewBox="0 0 18 18">
  <metadata><?xpacket begin="﻿" id="W5M0MpCehiHzreSzNTczkc9d"?>
<x:xmpmeta xmlns:x="adobe:ns:meta/" x:xmptk="Adobe XMP Core 5.6-c142 79.160924, 2017/07/13-01:06:39        ">
   <rdf:RDF xmlns:rdf="http://www.w3.org/1999/02/22-rdf-syntax-ns#">
      <rdf:Description rdf:about=""/>
   </rdf:RDF>
</x:xmpmeta>
                                                                                                    
                                                                                                    
                                                                                                    
                                                                                                    
                                                                                                    
                                                                                                    
                                                                                                    
                                                                                                    
                                                                                                    
                                                                                                    
                                                                                                    
                                                                                                    
                                                                                                    
                                                                                                    
                                                                                                    
                                                                                                    
                                                                                                    
                                                                                                    
                                                                                                    
                                                                                                    
                           
<?xpacket end="w"?></metadata>
<defs>
    <style>
      .cls-1 {
        fill: #9d91f7;
        fill-rule: evenodd;
      }
    </style>
  </defs>
  <path id="api" class="cls-1" d="M1214.52,1005.52a1.649,1.649,0,0,1-1.17.48h-14.71a1.649,1.649,0,0,1-1.17-.48,1.615,1.615,0,0,1-.47-1.17V989.631a1.622,1.622,0,0,1,.48-1.157,1.641,1.641,0,0,1,1.16-.474h14.71a1.644,1.644,0,0,1,1.65,1.631v14.719A1.649,1.649,0,0,1,1214.52,1005.52Zm-15.88-.85h14.71a0.354,0.354,0,0,0,.33-0.32v-11.2h-15.36v11.2A0.344,0.344,0,0,0,1198.64,1004.67Zm14.71-15.365h-14.71a0.352,0.352,0,0,0-.32.326v2.205h15.36v-2.205A0.354,0.354,0,0,0,1213.35,989.305Zm-8.28,1.8h-0.7a0.7,0.7,0,0,1-.62-0.652,0.71,0.71,0,0,1,.66-0.653h0.66A0.653,0.653,0,0,1,1205.07,991.105Zm-2.45,0h-0.7a0.653,0.653,0,1,1,0-1.305h0.7A0.653,0.653,0,1,1,1202.62,991.105Zm-2.5,0h-0.66a0.653,0.653,0,0,1,0-1.305h0.66A0.653,0.653,0,0,1,1200.12,991.105Zm2.85,4.084,2.38,5.881h-1.32l-0.48-1.3h-2.38l-0.48,1.3h-1.23l2.25-5.881h1.26Zm0.13,3.633-0.82-2.25-0.78,2.217Zm6.08-3.555a1.191,1.191,0,0,1,.82.574,2.36,2.36,0,0,1,.33,1.125,3.07,3.07,0,0,1-.17.9,1.686,1.686,0,0,1-.48.574,0.952,0.952,0,0,1-.58.247,4.79,4.79,0,0,1-1.22.079h-0.76v2.254l-1.24.05v-5.881h1.92A5.227,5.227,0,0,1,1209.18,995.267Zm-2.06,2.622h0.68a2.113,2.113,0,0,0,.89-0.079c0.09-.09.25-0.169,0.41-0.326a0.547,0.547,0,0,0,.16-0.484,0.69,0.69,0,0,0-.16-0.5,0.59,0.59,0,0,0-.49-0.236l-1.49-.012v1.632Zm5.38,3.181h-1.12v-5.881h1.12v5.881Z" transform="translate(-1197 -988)"/>
</svg>
