<svg xmlns="http://www.w3.org/2000/svg" width="20" height="20" viewBox="0 0 20 20">
  <metadata><?xpacket begin="﻿" id="W5M0MpCehiHzreSzNTczkc9d"?>
<x:xmpmeta xmlns:x="adobe:ns:meta/" x:xmptk="Adobe XMP Core 5.6-c142 79.160924, 2017/07/13-01:06:39        ">
   <rdf:RDF xmlns:rdf="http://www.w3.org/1999/02/22-rdf-syntax-ns#">
      <rdf:Description rdf:about=""/>
   </rdf:RDF>
</x:xmpmeta>
                                                                                                    
                                                                                                    
                                                                                                    
                                                                                                    
                                                                                                    
                                                                                                    
                                                                                                    
                                                                                                    
                                                                                                    
                                                                                                    
                                                                                                    
                                                                                                    
                                                                                                    
                                                                                                    
                                                                                                    
                                                                                                    
                                                                                                    
                                                                                                    
                                                                                                    
                                                                                                    
                           
<?xpacket end="w"?></metadata>
<defs>
    <style>
      .cls-1 {
        fill-rule: evenodd;
      }
    </style>
  </defs>
  <path id="更新" class="cls-1" d="M57.333,1179H55.166a0.645,0.645,0,0,1-.619-0.63,0.652,0.652,0,0,1,.619-0.63h2.167a1.3,1.3,0,0,0,1.333-1.26v-11.96a1.3,1.3,0,0,0-1.333-1.26H44.666a1.358,1.358,0,0,0-.943.37,1.2,1.2,0,0,0-.39.89v11.96a1.218,1.218,0,0,0,.39.89,1.357,1.357,0,0,0,.943.37h2.167a0.63,0.63,0,0,1,0,1.26H44.666A2.6,2.6,0,0,1,42,1176.48v-11.96a2.6,2.6,0,0,1,2.666-2.52H57.333A2.6,2.6,0,0,1,60,1164.52v11.96a2.6,2.6,0,0,1-2.666,2.52h0Zm-10.746-8.74a0.6,0.6,0,0,1,0-.89l3.941-3.72a0.537,0.537,0,0,1,.1-0.08l0.049-.03,0.066-.03c0.022-.01.044-0.01,0.066-0.02a0.121,0.121,0,0,1,.059-0.01,0.568,0.568,0,0,1,.259,0,0.119,0.119,0,0,1,.058.01c0.022,0.01.044,0.01,0.067,0.02l0.065,0.03,0.049,0.03a0.5,0.5,0,0,1,.1.08l3.941,3.72a0.6,0.6,0,0,1,0,.89h0a0.706,0.706,0,0,1-.942,0l-2.8-2.65v9.5a0.668,0.668,0,0,1-1.333,0v-9.5l-2.8,2.65a0.687,0.687,0,0,1-.943,0h0Zm0,0" transform="translate(-41 -1160.5)"/>
</svg>
