<svg xmlns="http://www.w3.org/2000/svg" width="16" height="16" viewBox="0 0 16 16">
  <metadata><?xpacket begin="﻿" id="W5M0MpCehiHzreSzNTczkc9d"?>
<x:xmpmeta xmlns:x="adobe:ns:meta/" x:xmptk="Adobe XMP Core 5.6-c142 79.160924, 2017/07/13-01:06:39        ">
   <rdf:RDF xmlns:rdf="http://www.w3.org/1999/02/22-rdf-syntax-ns#">
      <rdf:Description rdf:about=""/>
   </rdf:RDF>
</x:xmpmeta>
                                                                                                    
                                                                                                    
                                                                                                    
                                                                                                    
                                                                                                    
                                                                                                    
                                                                                                    
                                                                                                    
                                                                                                    
                                                                                                    
                                                                                                    
                                                                                                    
                                                                                                    
                                                                                                    
                                                                                                    
                                                                                                    
                                                                                                    
                                                                                                    
                                                                                                    
                                                                                                    
                           
<?xpacket end="w"?></metadata>
<defs>
    <style>
      .cls-1 {
        fill-rule: evenodd;
      }
    </style>
  </defs>
  <path id="查看" class="cls-1" d="M3593.82,1062.08l-0.75.74a0.531,0.531,0,0,1-.74,0l-1.31-1.3a3.672,3.672,0,1,1,.86-5.81,3.64,3.64,0,0,1,.63,4.33l1.31,1.3A0.531,0.531,0,0,1,3593.82,1062.08Zm-3.05-5.25a2.125,2.125,0,0,0-2.99,0,2.1,2.1,0,0,0,2.98,2.96h0.01A2.1,2.1,0,0,0,3590.77,1056.83Zm-9.06,1.22a0.7,0.7,0,0,1-.71-0.7h0.01a0.684,0.684,0,0,1,.7-0.7h3.08a4.368,4.368,0,0,0-.29,1.4h-2.79Zm0-2.99a0.705,0.705,0,1,1,0-1.41h6.54a4.773,4.773,0,0,0-2.47,1.41h-4.07Zm2.57-4.4h4.11a0.7,0.7,0,0,1,.71.7,0.712,0.712,0,0,1-.21.5,0.7,0.7,0,0,1-.5.2h-4.11v-1.4Zm6.12-2.06h-7.95l-0.02.02v2.92h-2.82v8.36h5.16a4.651,4.651,0,0,0,.96,1.6h-6.84a0.883,0.883,0,0,1-.89-0.88v-9.93l3.76-3.69h9.37a0.89,0.89,0,0,1,.89.88v6.52a4.8,4.8,0,0,0-1.62-.71v-5.09Z" transform="translate(-3578 -1047)"/>
</svg>
