<svg xmlns="http://www.w3.org/2000/svg" width="18" height="21.375" viewBox="0 0 16 19">
  <metadata><?xpacket begin="﻿" id="W5M0MpCehiHzreSzNTczkc9d"?>
<x:xmpmeta xmlns:x="adobe:ns:meta/" x:xmptk="Adobe XMP Core 5.6-c142 79.160924, 2017/07/13-01:06:39        ">
   <rdf:RDF xmlns:rdf="http://www.w3.org/1999/02/22-rdf-syntax-ns#">
      <rdf:Description rdf:about=""/>
   </rdf:RDF>
</x:xmpmeta>
                                                                                                    
                                                                                                    
                                                                                                    
                                                                                                    
                                                                                                    
                                                                                                    
                                                                                                    
                                                                                                    
                                                                                                    
                                                                                                    
                                                                                                    
                                                                                                    
                                                                                                    
                                                                                                    
                                                                                                    
                                                                                                    
                                                                                                    
                                                                                                    
                                                                                                    
                                                                                                    
                           
<?xpacket end="w"?></metadata>
<defs>
    <style>
      .cls-1 {
        fill-rule: evenodd;
      }
    </style>
  </defs>
  <path id="授权登录" class="cls-1" d="M643.4,991.324a10.539,10.539,0,0,1-1.061-.292,39.127,39.127,0,0,1-4.359-1.753c-0.415-.2-0.746-0.374-1-0.514-0.149.088-.326,0.188-0.528,0.3a25.074,25.074,0,0,1-5.134,2.081q-0.357.1-.719,0.182v8.438c0.895,1.746,4.819,4.566,6.4,4.566a1.162,1.162,0,0,0,.306-0.02c0.065-.01.538-0.15,0.7-0.19,1.431-.38,4.83-3.03,5.393-4.32v-3.771a0.841,0.841,0,0,1,.4-0.722,0.768,0.768,0,0,1,.8,0,0.842,0.842,0,0,1,.4.722v3.927a0.8,0.8,0,0,1-.042.264c-0.6,1.86-4.6,5-6.553,5.51-0.1.03-.657,0.19-0.8,0.22a3.02,3.02,0,0,1-.6.05c-2.277,0-6.939-3.39-7.927-5.7a0.9,0.9,0,0,1-.068-0.343V990.9a2.47,2.47,0,0,1,.134-0.737,0.79,0.79,0,0,1,.524-0.346q0.627-.11,1.243-0.282a23.551,23.551,0,0,0,4.808-1.949q0.422-.231.83-0.487a0.769,0.769,0,0,1,.847,0c0.039,0.026.135,0.084,0.287,0.169,0.263,0.147.586,0.316,0.973,0.5a37.569,37.569,0,0,0,4.184,1.684,13.5,13.5,0,0,0,1.475.372A1.305,1.305,0,0,1,645,990.9v1.159a0.8,0.8,0,1,1-1.6,0v-0.734h0Zm-9.763,4.939a0.873,0.873,0,0,1,.119-1.184,0.787,0.787,0,0,1,1.138.082l2.572,3.2a0.873,0.873,0,0,1-.12,1.184,0.786,0.786,0,0,1-1.137-.082Zm9.991-4.669a0.794,0.794,0,0,1,1.147.082,0.878,0.878,0,0,1-.123,1.2l-7.3,6.672a0.793,0.793,0,0,1-1.148-.082,0.877,0.877,0,0,1,.122-1.195Zm0,0" transform="translate(-629 -987)"/>
</svg>
