<svg xmlns="http://www.w3.org/2000/svg" width="18" height="16" viewBox="0 0 18 16">
  <metadata><?xpacket begin="﻿" id="W5M0MpCehiHzreSzNTczkc9d"?>
<x:xmpmeta xmlns:x="adobe:ns:meta/" x:xmptk="Adobe XMP Core 5.6-c142 79.160924, 2017/07/13-01:06:39        ">
   <rdf:RDF xmlns:rdf="http://www.w3.org/1999/02/22-rdf-syntax-ns#">
      <rdf:Description rdf:about=""/>
   </rdf:RDF>
</x:xmpmeta>
                                                                                                    
                                                                                                    
                                                                                                    
                                                                                                    
                                                                                                    
                                                                                                    
                                                                                                    
                                                                                                    
                                                                                                    
                                                                                                    
                                                                                                    
                                                                                                    
                                                                                                    
                                                                                                    
                                                                                                    
                                                                                                    
                                                                                                    
                                                                                                    
                                                                                                    
                                                                                                    
                           
<?xpacket end="w"?></metadata>
<defs>
    <style>
      .cls-1 {
        fill-rule: evenodd;
      }
    </style>
  </defs>
  <path id="发布" class="cls-1" d="M1013.61,884a0.633,0.633,0,0,1-.6-0.577v-3.747a1.73,1.73,0,0,1,.6-1.3c2.39-2.594,4.93-5.333,7.32-8.072l-12.99,6.631,4.33,1.3-0.45,1.153h-0.15l-5.22-1.585a0.9,0.9,0,0,1-.45-0.577,1.041,1.041,0,0,1,.6-0.865c0.44-.288,15.67-7.783,16.12-8.072a0.145,0.145,0,0,0,.15-0.144c0.15,0,.29-0.144.44-0.144h0.3a0.591,0.591,0,0,1,.3.865c0,0.144-.45,2.45-1.49,7.5l-0.3,1.874c-0.15,1.009-.45,2.018-0.6,3.027a1.075,1.075,0,0,1-1.04.865h-0.3c-1.64-.432-3.43-1.009-5.08-1.441h-0.14l0.44-1.154h0.15s4.33,1.3,4.93,1.442c0.15-.577,1.64-8.216,2.24-10.667-1.5,1.586-5.38,6.054-7.17,7.928l-1.19,1.153a1.421,1.421,0,0,0-.15.433v3.6a0.633,0.633,0,0,1-.6.577h0Zm0,0" transform="translate(-1006 -868)"/>
</svg>
