<svg xmlns="http://www.w3.org/2000/svg" width="18" height="18" viewBox="0 0 18 18">
  <metadata><?xpacket begin="﻿" id="W5M0MpCehiHzreSzNTczkc9d"?>
<x:xmpmeta xmlns:x="adobe:ns:meta/" x:xmptk="Adobe XMP Core 5.6-c142 79.160924, 2017/07/13-01:06:39        ">
   <rdf:RDF xmlns:rdf="http://www.w3.org/1999/02/22-rdf-syntax-ns#">
      <rdf:Description rdf:about=""/>
   </rdf:RDF>
</x:xmpmeta>
                                                                                                    
                                                                                                    
                                                                                                    
                                                                                                    
                                                                                                    
                                                                                                    
                                                                                                    
                                                                                                    
                                                                                                    
                                                                                                    
                                                                                                    
                                                                                                    
                                                                                                    
                                                                                                    
                                                                                                    
                                                                                                    
                                                                                                    
                                                                                                    
                                                                                                    
                                                                                                    
                           
<?xpacket end="w"?></metadata>
<defs>
    <style>
      .cls-1 {
        fill: #32c261;
        fill-rule: evenodd;
      }
    </style>
  </defs>
  <path id="会员用户" class="cls-1" d="M264.363,883.364a9,9,0,0,1-11.015,1.343,0.626,0.626,0,0,1,.648-1.072,7.75,7.75,0,1,0-2.492-2.409,0.626,0.626,0,1,1-1.049.684A9,9,0,1,1,264.363,883.364Zm-1.283-1.673a0.627,0.627,0,1,1-1.253,0,3.85,3.85,0,0,0-7.7,0,0.626,0.626,0,1,1-1.252,0h0a5.109,5.109,0,0,1,3.07-4.679,3.644,3.644,0,1,1,4.064,0A5.109,5.109,0,0,1,263.08,881.691Zm-2.71-7.7a2.392,2.392,0,1,0-2.392,2.392A2.395,2.395,0,0,0,260.37,873.989Z" transform="translate(-249 -868)"/>
</svg>
