<svg xmlns="http://www.w3.org/2000/svg" width="20" height="20" viewBox="0 0 20 20">
  <metadata><?xpacket begin="﻿" id="W5M0MpCehiHzreSzNTczkc9d"?>
<x:xmpmeta xmlns:x="adobe:ns:meta/" x:xmptk="Adobe XMP Core 5.6-c142 79.160924, 2017/07/13-01:06:39        ">
   <rdf:RDF xmlns:rdf="http://www.w3.org/1999/02/22-rdf-syntax-ns#">
      <rdf:Description rdf:about=""/>
   </rdf:RDF>
</x:xmpmeta>
                                                                                                    
                                                                                                    
                                                                                                    
                                                                                                    
                                                                                                    
                                                                                                    
                                                                                                    
                                                                                                    
                                                                                                    
                                                                                                    
                                                                                                    
                                                                                                    
                                                                                                    
                                                                                                    
                                                                                                    
                                                                                                    
                                                                                                    
                                                                                                    
                                                                                                    
                                                                                                    
                           
<?xpacket end="w"?></metadata>
<defs>
    <style>
      .cls-1 {
        fill-rule: evenodd;
      }
    </style>
  </defs>
  <path id="信息" class="cls-1" d="M46.748,984.905h7.5a0.532,0.532,0,0,0,0-1.063h-7.5a0.532,0.532,0,0,0,0,1.063h0Zm2.143-3.719h3.214a1.593,1.593,0,1,0,0-3.186H48.891a1.593,1.593,0,1,0,0,3.186h0Zm0-2.124h3.214a0.531,0.531,0,1,1,0,1.062H48.891a0.531,0.531,0,1,1,0-1.062h0Zm5.892,8.5a0.533,0.533,0,0,0-.536-0.53h-7.5a0.531,0.531,0,0,0,0,1.062h7.5a0.534,0.534,0,0,0,.536-0.532h0Zm1.608-8.5H54.783v1.062h1.608a0.547,0.547,0,0,1,.38.157,0.514,0.514,0,0,1,.155.374V993.4a0.517,0.517,0,0,1-.154.376,0.546,0.546,0,0,1-.381.158H44.605a0.544,0.544,0,0,1-.381-0.158,0.516,0.516,0,0,1-.154-0.376V980.655a0.52,0.52,0,0,1,.155-0.374,0.547,0.547,0,0,1,.38-0.157h1.607v-1.062H44.605A1.6,1.6,0,0,0,43,980.656V993.4a1.56,1.56,0,0,0,.465,1.123,1.642,1.642,0,0,0,1.142.473H56.392a1.642,1.642,0,0,0,1.142-.473A1.56,1.56,0,0,0,58,993.4V980.656a1.6,1.6,0,0,0-1.607-1.594h0Zm-9.642,11.155a0.531,0.531,0,0,0,0,1.062h4.286a0.531,0.531,0,0,0,0-1.062H46.748Zm0,0" transform="translate(-40.5 -976.5)"/>
</svg>
