<svg xmlns="http://www.w3.org/2000/svg" width="13.967" height="12.923" viewBox="0 0 12.97 12">
  <metadata><?xpacket begin="﻿" id="W5M0MpCehiHzreSzNTczkc9d"?>
<x:xmpmeta xmlns:x="adobe:ns:meta/" x:xmptk="Adobe XMP Core 5.6-c142 79.160924, 2017/07/13-01:06:39        ">
   <rdf:RDF xmlns:rdf="http://www.w3.org/1999/02/22-rdf-syntax-ns#">
      <rdf:Description rdf:about=""/>
   </rdf:RDF>
</x:xmpmeta>
                                                                                                    
                                                                                                    
                                                                                                    
                                                                                                    
                                                                                                    
                                                                                                    
                                                                                                    
                                                                                                    
                                                                                                    
                                                                                                    
                                                                                                    
                                                                                                    
                                                                                                    
                                                                                                    
                                                                                                    
                                                                                                    
                                                                                                    
                                                                                                    
                                                                                                    
                                                                                                    
                           
<?xpacket end="w"?></metadata>
<defs>
    <style>
      .cls-1 {
        fill-rule: evenodd;
      }
    </style>
  </defs>
  <path id="密钥" class="cls-1" d="M4044.73,1097.47a0.845,0.845,0,0,1-1.14.02l-0.61-.59-1.32,1.29,1.34,1.3a0.788,0.788,0,0,1-.02,1.11,0.825,0.825,0,0,1-1.14.02l-1.34-1.3-1.2,1.17a3.9,3.9,0,0,1,.92,2.5,4.136,4.136,0,1,1-2.2-3.52l4.36-4.26a0.841,0.841,0,0,1,.88-0.15,0.8,0.8,0,0,1,.39.22l1.1,1.07A0.8,0.8,0,0,1,4044.73,1097.47Zm-8.62,3.12a2.406,2.406,0,1,0,2.47,2.4A2.442,2.442,0,0,0,4036.11,1100.59Z" transform="translate(-4032 -1095)"/>
</svg>
