<svg xmlns="http://www.w3.org/2000/svg" width="13.964" height="13.999" viewBox="0 0 11.97 12">
  <metadata><?xpacket begin="﻿" id="W5M0MpCehiHzreSzNTczkc9d"?>
<x:xmpmeta xmlns:x="adobe:ns:meta/" x:xmptk="Adobe XMP Core 5.6-c142 79.160924, 2017/07/13-01:06:39        ">
   <rdf:RDF xmlns:rdf="http://www.w3.org/1999/02/22-rdf-syntax-ns#">
      <rdf:Description rdf:about=""/>
   </rdf:RDF>
</x:xmpmeta>
                                                                                                    
                                                                                                    
                                                                                                    
                                                                                                    
                                                                                                    
                                                                                                    
                                                                                                    
                                                                                                    
                                                                                                    
                                                                                                    
                                                                                                    
                                                                                                    
                                                                                                    
                                                                                                    
                                                                                                    
                                                                                                    
                                                                                                    
                                                                                                    
                                                                                                    
                                                                                                    
                           
<?xpacket end="w"?></metadata>
<defs>
    <style>
      .cls-1 {
        fill: #fff;
        fill-rule: evenodd;
      }
    </style>
  </defs>
  <path id="排序" class="cls-1" d="M3293.59,888.056a0.743,0.743,0,0,0-.82.169l-3.55,3.564a0.767,0.767,0,0,0,0,1.075,0.749,0.749,0,0,0,1.06,0l2.27-2.279v8.644a0.75,0.75,0,1,0,1.5,0V888.755a0.744,0.744,0,0,0-.46-0.7h0Zm7.17,7.072a0.749,0.749,0,0,0-1.06,0l-2.27,2.279v-8.652a0.75,0.75,0,1,0-1.5,0v10.482a0.756,0.756,0,0,0,.47.707,0.668,0.668,0,0,0,.28.056,0.734,0.734,0,0,0,.53-0.225l3.55-3.572a0.793,0.793,0,0,0,0-1.075h0Zm0,0" transform="translate(-3289 -888)"/>
</svg>
