<svg xmlns="http://www.w3.org/2000/svg" width="18" height="15.882" viewBox="0 0 17 15">
  <metadata><?xpacket begin="﻿" id="W5M0MpCehiHzreSzNTczkc9d"?>
<x:xmpmeta xmlns:x="adobe:ns:meta/" x:xmptk="Adobe XMP Core 5.6-c142 79.160924, 2017/07/13-01:06:39        ">
   <rdf:RDF xmlns:rdf="http://www.w3.org/1999/02/22-rdf-syntax-ns#">
      <rdf:Description rdf:about=""/>
   </rdf:RDF>
</x:xmpmeta>
                                                                                                    
                                                                                                    
                                                                                                    
                                                                                                    
                                                                                                    
                                                                                                    
                                                                                                    
                                                                                                    
                                                                                                    
                                                                                                    
                                                                                                    
                                                                                                    
                                                                                                    
                                                                                                    
                                                                                                    
                                                                                                    
                                                                                                    
                                                                                                    
                                                                                                    
                                                                                                    
                           
<?xpacket end="w"?></metadata>
<defs>
    <style>
      .cls-1 {
        fill: #32c261;
        fill-rule: evenodd;
      }
    </style>
  </defs>
  <path id="支付" class="cls-1" d="M1021.73,1003h-12.46a2.284,2.284,0,0,1-2.27-2.31V990.308a2.285,2.285,0,0,1,2.27-2.308h12.46a2.291,2.291,0,0,1,2.27,2.308v10.382A2.29,2.29,0,0,1,1021.73,1003Zm1.14-12.692a1.146,1.146,0,0,0-1.14-1.154h-12.46a1.146,1.146,0,0,0-1.14,1.154v1.153h14.74v-1.153Zm0,2.307h-14.74v8.075a1.15,1.15,0,0,0,1.14,1.16h12.46a1.15,1.15,0,0,0,1.14-1.16v-8.075Zm-5.1,5.77a0.577,0.577,0,0,1,0,1.153h-1.7v1.152a0.57,0.57,0,1,1-1.14,0v-1.152h-1.7a0.577,0.577,0,0,1,0-1.153h1.7v-1.154h-1.7a0.577,0.577,0,0,1,0-1.154h1.41l0.02-.02-1.81-1.846a0.6,0.6,0,0,1,.02-0.835,0.584,0.584,0,0,1,.82-0.018l1.81,1.846,1.81-1.846a0.584,0.584,0,0,1,.82.018,0.6,0.6,0,0,1,.02.835l-1.81,1.846,0.02,0.02h1.41a0.577,0.577,0,0,1,0,1.154h-1.7v1.154h1.7Z" transform="translate(-1007 -988)"/>
</svg>
