<svg xmlns="http://www.w3.org/2000/svg" width="20" height="20" viewBox="0 0 20 20">
  <metadata><?xpacket begin="﻿" id="W5M0MpCehiHzreSzNTczkc9d"?>
<x:xmpmeta xmlns:x="adobe:ns:meta/" x:xmptk="Adobe XMP Core 5.6-c142 79.160924, 2017/07/13-01:06:39        ">
   <rdf:RDF xmlns:rdf="http://www.w3.org/1999/02/22-rdf-syntax-ns#">
      <rdf:Description rdf:about=""/>
   </rdf:RDF>
</x:xmpmeta>
                                                                                                    
                                                                                                    
                                                                                                    
                                                                                                    
                                                                                                    
                                                                                                    
                                                                                                    
                                                                                                    
                                                                                                    
                                                                                                    
                                                                                                    
                                                                                                    
                                                                                                    
                                                                                                    
                                                                                                    
                                                                                                    
                                                                                                    
                                                                                                    
                                                                                                    
                                                                                                    
                           
<?xpacket end="w"?></metadata>
<defs>
    <style>
      .cls-1 {
        fill-rule: evenodd;
      }
    </style>
  </defs>
  <path id="统计" class="cls-1" d="M60,857.683v-0.014c0-.012,0-0.025,0-0.037v-0.008c0-.015,0-0.03-0.006-0.046v-0.006c0-.016-0.006-0.031-0.01-0.046s-0.009-.033-0.014-0.049a0.642,0.642,0,0,0-.039-0.1l0,0a0.663,0.663,0,0,0-.05-0.083l-0.006-.009c-0.009-.012-0.018-0.024-0.028-0.036h0l-0.028-.032L59.8,857.21l-0.031-.031,0,0-0.033-.026-0.007-.006a0.517,0.517,0,0,0-.078-0.052l0,0a0.7,0.7,0,0,0-.089-0.042h0a0.755,0.755,0,0,0-.093-0.028l-0.006,0A0.745,0.745,0,0,0,59.363,857H59.352a0.363,0.363,0,0,0-.047,0H55.144a0.692,0.692,0,1,0,0,1.384h2.487l-4.568,4.56-3.671-3.665a0.7,0.7,0,0,0-.98,0l-6.242,6.231a0.693,0.693,0,0,0,.98.979l5.751-5.741,3.671,3.664a0.694,0.694,0,0,0,.981,0l5.058-5.048v2.482a0.694,0.694,0,0,0,1.387,0v-4.163ZM44.048,869.461a0.693,0.693,0,0,0-.693.693v4.153a0.693,0.693,0,0,0,1.387,0v-4.153a0.693,0.693,0,0,0-.694-0.693h0ZM48.9,866a0.693,0.693,0,0,0-.694.692v7.615a0.694,0.694,0,0,0,1.387,0v-7.615A0.693,0.693,0,0,0,48.9,866h0Zm4.855,2.769a0.693,0.693,0,0,0-.693.692v4.846a0.694,0.694,0,0,0,1.387,0v-4.846a0.694,0.694,0,0,0-.694-0.692h0Zm4.855-3.462a0.693,0.693,0,0,0-.694.693v8.307a0.693,0.693,0,0,0,1.387,0V866a0.693,0.693,0,0,0-.693-0.693h0Zm0,0" transform="translate(-41 -856)"/>
</svg>
