<svg xmlns="http://www.w3.org/2000/svg" width="18" height="16" viewBox="0 0 18 16">
  <metadata><?xpacket begin="﻿" id="W5M0MpCehiHzreSzNTczkc9d"?>
<x:xmpmeta xmlns:x="adobe:ns:meta/" x:xmptk="Adobe XMP Core 5.6-c142 79.160924, 2017/07/13-01:06:39        ">
   <rdf:RDF xmlns:rdf="http://www.w3.org/1999/02/22-rdf-syntax-ns#">
      <rdf:Description rdf:about=""/>
   </rdf:RDF>
</x:xmpmeta>
                                                                                                    
                                                                                                    
                                                                                                    
                                                                                                    
                                                                                                    
                                                                                                    
                                                                                                    
                                                                                                    
                                                                                                    
                                                                                                    
                                                                                                    
                                                                                                    
                                                                                                    
                                                                                                    
                                                                                                    
                                                                                                    
                                                                                                    
                                                                                                    
                                                                                                    
                                                                                                    
                           
<?xpacket end="w"?></metadata>
<defs>
    <style>
      .cls-1 {
        fill: #2679e9;
        fill-rule: evenodd;
      }
    </style>
  </defs>
  <path id="认证企业" class="cls-1" d="M646.4,883.767h-0.6v-8.616a2.468,2.468,0,0,0-2.4-2.46h-3.6v-1.232A2.467,2.467,0,0,0,637.4,869h-4.8a2.467,2.467,0,0,0-2.4,2.459v12.308h-0.6a0.617,0.617,0,0,0,0,1.233h16.8a0.617,0.617,0,0,0,0-1.233h0Zm-7.8-11.076v11.076h-7.2V871.459a1.207,1.207,0,0,1,.338-0.886,1.138,1.138,0,0,1,.864-0.347h4.8a1.142,1.142,0,0,1,.86.349,1.21,1.21,0,0,1,.336.884v1.232Zm6,11.076H639.8v-9.849h3.6a1.14,1.14,0,0,1,.864.346,1.209,1.209,0,0,1,.338.887ZM636.8,872.691h-3.6a0.614,0.614,0,0,0,0,1.227h3.6a0.614,0.614,0,0,0,0-1.227h0Zm0,3.692h-3.6a0.617,0.617,0,0,0,0,1.233h3.6a0.617,0.617,0,0,0,0-1.233h0Zm0,3.692h-3.6a0.617,0.617,0,0,0,0,1.233h3.6a0.617,0.617,0,0,0,0-1.233h0Zm6-3.692h-1.2a0.617,0.617,0,0,0,0,1.233h1.2a0.617,0.617,0,0,0,0-1.233h-0.006Zm0,3.692h-1.2a0.617,0.617,0,0,0,0,1.233h1.2a0.617,0.617,0,0,0,0-1.233h-0.006Zm0,0" transform="translate(-629 -869)"/>
</svg>
