<svg xmlns="http://www.w3.org/2000/svg" width="18" height="20" viewBox="0 0 18 20">
  <metadata><?xpacket begin="﻿" id="W5M0MpCehiHzreSzNTczkc9d"?>
<x:xmpmeta xmlns:x="adobe:ns:meta/" x:xmptk="Adobe XMP Core 5.6-c142 79.160924, 2017/07/13-01:06:39        ">
   <rdf:RDF xmlns:rdf="http://www.w3.org/1999/02/22-rdf-syntax-ns#">
      <rdf:Description rdf:about=""/>
   </rdf:RDF>
</x:xmpmeta>
                                                                                                    
                                                                                                    
                                                                                                    
                                                                                                    
                                                                                                    
                                                                                                    
                                                                                                    
                                                                                                    
                                                                                                    
                                                                                                    
                                                                                                    
                                                                                                    
                                                                                                    
                                                                                                    
                                                                                                    
                                                                                                    
                                                                                                    
                                                                                                    
                                                                                                    
                                                                                                    
                           
<?xpacket end="w"?></metadata>
<defs>
    <style>
      .cls-1 {
        fill: #eba318;
        fill-rule: evenodd;
      }
    </style>
  </defs>
  <path id="实名认证" class="cls-1" d="M455.993,870.909L455.1,870.9a13.756,13.756,0,0,1-4.08-.816,18.7,18.7,0,0,1-3.49-1.719L447,868l-0.535.361a18.7,18.7,0,0,1-3.491,1.718,13.626,13.626,0,0,1-4.077.815l-0.895.014v8.407c0,4.223,5.853,8.685,9,8.685s9-4.462,9-8.685l0-8.407h0Zm-9,15.844c-2.614,0-7.709-4.014-7.709-7.436v-7.19a15.087,15.087,0,0,0,4.148-.881A21.017,21.017,0,0,0,447,869.514a20.48,20.48,0,0,0,3.557,1.732,15.16,15.16,0,0,0,4.149.881v7.19c0,3.422-5.1,7.435-7.709,7.435h0Zm5.369-7.934-3.452,3.333-1.445-1.585a0.662,0.662,0,0,0-.911-0.055,0.61,0.61,0,0,0-.057.881l1.9,2.084a0.652,0.652,0,0,0,.464.21h0.021a0.657,0.657,0,0,0,.455-0.179l3.938-3.805a0.611,0.611,0,0,0-.031-0.853,0.663,0.663,0,0,0-.882-0.031h0Zm-3.529,1.132a12.153,12.153,0,0,1,.952-0.838,4.7,4.7,0,0,0-1.543-1.049,2.841,2.841,0,0,0,1.167-2.272,2.983,2.983,0,0,0-5.963,0,2.84,2.84,0,0,0,1.161,2.267,4.473,4.473,0,0,0-2.8,4.106,0.645,0.645,0,0,0,1.289,0,3.281,3.281,0,0,1,3.33-3.22,3.361,3.361,0,0,1,2.406,1.006h0Zm-2.4-5.8a1.637,1.637,0,1,1-1.693,1.638,1.668,1.668,0,0,1,1.693-1.638h0Zm0,0" transform="translate(-438 -868)"/>
</svg>
