<svg xmlns="http://www.w3.org/2000/svg" width="23" height="19" viewBox="0 0 23 19">
  <metadata><?xpacket begin="﻿" id="W5M0MpCehiHzreSzNTczkc9d"?>
<x:xmpmeta xmlns:x="adobe:ns:meta/" x:xmptk="Adobe XMP Core 5.6-c142 79.160924, 2017/07/13-01:06:39        ">
   <rdf:RDF xmlns:rdf="http://www.w3.org/1999/02/22-rdf-syntax-ns#">
      <rdf:Description rdf:about=""/>
   </rdf:RDF>
</x:xmpmeta>
                                                                                                    
                                                                                                    
                                                                                                    
                                                                                                    
                                                                                                    
                                                                                                    
                                                                                                    
                                                                                                    
                                                                                                    
                                                                                                    
                                                                                                    
                                                                                                    
                                                                                                    
                                                                                                    
                                                                                                    
                                                                                                    
                                                                                                    
                                                                                                    
                                                                                                    
                                                                                                    
                           
<?xpacket end="w"?></metadata>
<defs>
    <style>
      .cls-1 {
        fill: silver;
        fill-rule: evenodd;
      }
    </style>
  </defs>
  <path id="日期" class="cls-1" d="M3571.18,1400h-19.36a1.788,1.788,0,0,1-1.82-1.76v-14.09a1.85,1.85,0,0,1,1.82-1.76h2.97v-0.65a0.808,0.808,0,0,1,.77-0.74,0.831,0.831,0,0,1,.86.74v0.65h10.25v-0.65a0.771,0.771,0,0,1,1.54,0v0.65h2.97a1.85,1.85,0,0,1,1.82,1.76v14.09A1.8,1.8,0,0,1,3571.18,1400Zm-0.19-15.85h-2.97v0.37a0.771,0.771,0,0,1-1.54,0v-0.37h-10.16v0.37a0.807,0.807,0,0,1-.76.74,0.744,0.744,0,0,1-.77-0.74v-0.37h-2.97v2.5h19.17v-2.5Zm0.19,3.98h-19.36v10.11h19.36v-10.11Zm-14.47,1.58h9.58a0.741,0.741,0,1,1,0,1.48h-9.58a0.654,0.654,0,0,1-.77-0.74A0.745,0.745,0,0,1,3556.71,1389.71Zm0,4.26h9.58a0.741,0.741,0,1,1,0,1.48h-9.58a0.689,0.689,0,0,1-.77-0.74A0.745,0.745,0,0,1,3556.71,1393.97Z" transform="translate(-3550 -1381)"/>
</svg>
