<svg xmlns="http://www.w3.org/2000/svg" width="13" height="16" viewBox="0 0 13 16">
  <metadata><?xpacket begin="﻿" id="W5M0MpCehiHzreSzNTczkc9d"?>
<x:xmpmeta xmlns:x="adobe:ns:meta/" x:xmptk="Adobe XMP Core 5.6-c142 79.160924, 2017/07/13-01:06:39        ">
   <rdf:RDF xmlns:rdf="http://www.w3.org/1999/02/22-rdf-syntax-ns#">
      <rdf:Description rdf:about=""/>
   </rdf:RDF>
</x:xmpmeta>
                                                                                                    
                                                                                                    
                                                                                                    
                                                                                                    
                                                                                                    
                                                                                                    
                                                                                                    
                                                                                                    
                                                                                                    
                                                                                                    
                                                                                                    
                                                                                                    
                                                                                                    
                                                                                                    
                                                                                                    
                                                                                                    
                                                                                                    
                                                                                                    
                                                                                                    
                                                                                                    
                           
<?xpacket end="w"?></metadata>
<defs>
    <style>
      .cls-1 {
        fill-rule: evenodd;
      }
    </style>
  </defs>
  <path id="删除_拷贝" data-name="删除 拷贝" class="cls-1" d="M2698.38,1004.2h-9.76a1.58,1.58,0,0,0-1.14.48,1.649,1.649,0,0,0-.48,1.17v0.1h13.01v-0.1a1.649,1.649,0,0,0-.48-1.17,1.6,1.6,0,0,0-1.15-.48m-3.05-.88,0.24,1.51h-4.14l0.24-1.52h3.66m0.34-1.31h-4.33a0.99,0.99,0,0,0-.93.82l-0.31,2.3a0.7,0.7,0,0,0,.15.57,0.687,0.687,0,0,0,.55.24h5.42a0.681,0.681,0,0,0,.54-0.24,0.74,0.74,0,0,0,.16-0.57l-0.32-2.3a0.982,0.982,0,0,0-.93-0.82m2.99,5.06h-10.31a0.983,0.983,0,0,0-.98,1.1l0.89,8.74a1.21,1.21,0,0,0,1.18,1.1h8.13a1.21,1.21,0,0,0,1.18-1.1l0.89-8.74a0.983,0.983,0,0,0-.98-1.1m-7.53,9.38h-1.64l-0.54-7.72h2.18v7.72Zm3.25,0h-1.75v-7.72h1.75v7.72Zm3.13,0h-1.62v-7.72h2.17Zm-0.21-.64" transform="translate(-2687 -1002)"/>
</svg>
