<svg xmlns="http://www.w3.org/2000/svg" width="15" height="15" viewBox="0 0 15 15">
  <metadata><?xpacket begin="﻿" id="W5M0MpCehiHzreSzNTczkc9d"?>
<x:xmpmeta xmlns:x="adobe:ns:meta/" x:xmptk="Adobe XMP Core 5.6-c142 79.160924, 2017/07/13-01:06:39        ">
   <rdf:RDF xmlns:rdf="http://www.w3.org/1999/02/22-rdf-syntax-ns#">
      <rdf:Description rdf:about=""/>
   </rdf:RDF>
</x:xmpmeta>
                                                                                                    
                                                                                                    
                                                                                                    
                                                                                                    
                                                                                                    
                                                                                                    
                                                                                                    
                                                                                                    
                                                                                                    
                                                                                                    
                                                                                                    
                                                                                                    
                                                                                                    
                                                                                                    
                                                                                                    
                                                                                                    
                                                                                                    
                                                                                                    
                                                                                                    
                                                                                                    
                           
<?xpacket end="w"?></metadata>
<defs>
    <style>
      .cls-1 {
        fill-rule: evenodd;
      }
    </style>
  </defs>
  <path id="审核" class="cls-1" d="M3537.59,2200.99h-6.31a0.75,0.75,0,1,1,0-1.5h6.31a0.75,0.75,0,1,1,0,1.5h0Zm-1.7,3.16h-4.61a0.75,0.75,0,1,1,0-1.5h4.61a0.75,0.75,0,1,1,0,1.5h0Zm-1.46,3.16h-3.15a0.75,0.75,0,1,1,0-1.5h3.15a0.75,0.75,0,1,1,0,1.5h0Zm8.33-6.12a0.751,0.751,0,0,0-1.04-.04l-0.26.25,1.09,1.06,0.26-.25a0.718,0.718,0,0,0-.05-1.02h0Zm-6.73,5.5a0.67,0.67,0,0,0-.18.39l-0.34,1.04a0.117,0.117,0,0,0,.15.14l1.06-.33a0.616,0.616,0,0,0,.4-0.18l5.03-4.9-1.09-1.06Zm0,0,3.07,2.81h-9.56v-12h9.56v4.1h1.54v-4.1a1.52,1.52,0,0,0-1.54-1.5h-9.56a1.52,1.52,0,0,0-1.54,1.5v12a1.52,1.52,0,0,0,1.54,1.5h9.56a1.52,1.52,0,0,0,1.54-1.5v-3.07h-1.54v3.07Zm0,0" transform="translate(-3528 -2196)"/>
</svg>
