<svg xmlns="http://www.w3.org/2000/svg" width="13.999" height="15.166" viewBox="0 0 12 13">
  <metadata><?xpacket begin="﻿" id="W5M0MpCehiHzreSzNTczkc9d"?>
<x:xmpmeta xmlns:x="adobe:ns:meta/" x:xmptk="Adobe XMP Core 5.6-c142 79.160924, 2017/07/13-01:06:39        ">
   <rdf:RDF xmlns:rdf="http://www.w3.org/1999/02/22-rdf-syntax-ns#">
      <rdf:Description rdf:about=""/>
   </rdf:RDF>
</x:xmpmeta>
                                                                                                    
                                                                                                    
                                                                                                    
                                                                                                    
                                                                                                    
                                                                                                    
                                                                                                    
                                                                                                    
                                                                                                    
                                                                                                    
                                                                                                    
                                                                                                    
                                                                                                    
                                                                                                    
                                                                                                    
                                                                                                    
                                                                                                    
                                                                                                    
                                                                                                    
                                                                                                    
                           
<?xpacket end="w"?></metadata>
<defs>
    <style>
      .cls-1 {

        fill-rule: evenodd;

      }
    </style>
  </defs>
  <path id="设置" class="cls-1" d="M4102.45,1108h0.75a0.423,0.423,0,0,0,.41-0.43v-4.45h-1.57v4.45a0.423,0.423,0,0,0,.41.43h0Zm4.92-13h-0.74a0.417,0.417,0,0,0-.41.43v6.61h1.56v-6.61a0.417,0.417,0,0,0-.41-0.43h0Zm-4.17,0h-0.75a0.423,0.423,0,0,0-.41.43v3.9h1.57v-3.9a0.423,0.423,0,0,0-.41-0.43h0Zm8.35,0h-0.75a0.423,0.423,0,0,0-.41.43v2.28h1.57v-2.28a0.423,0.423,0,0,0-.41-0.43h0Zm0.93,3.25h-2.61a0.527,0.527,0,0,0-.52.54v1.63a0.527,0.527,0,0,0,.52.54h2.61a0.527,0.527,0,0,0,.52-0.54v-1.63a0.527,0.527,0,0,0-.52-0.54h0Zm-1.68,9.75h0.74a0.425,0.425,0,0,0,.42-0.43v-6.07h-1.57v6.07a0.423,0.423,0,0,0,.41.43h0Zm-2.5-5.42h-2.61a0.54,0.54,0,0,0-.52.54v1.63a0.534,0.534,0,0,0,.52.54h2.61a0.527,0.527,0,0,0,.52-0.54v-1.63a0.527,0.527,0,0,0-.52-0.54h0Zm-1.67,5.42h0.74a0.417,0.417,0,0,0,.41-0.43v-1.74h-1.56v1.74a0.417,0.417,0,0,0,.41.43h0Zm-2.5-8.12h-2.61a0.527,0.527,0,0,0-.52.54v1.62a0.527,0.527,0,0,0,.52.54h2.61a0.527,0.527,0,0,0,.52-0.54v-1.62a0.527,0.527,0,0,0-.52-0.54h0Zm0,0" transform="translate(-4101 -1095)"/>
</svg>
