<svg xmlns="http://www.w3.org/2000/svg" width="17.969" height="17" viewBox="0 0 17.969 17">
  <metadata><?xpacket begin="﻿" id="W5M0MpCehiHzreSzNTczkc9d"?>
<x:xmpmeta xmlns:x="adobe:ns:meta/" x:xmptk="Adobe XMP Core 5.6-c142 79.160924, 2017/07/13-01:06:39        ">
   <rdf:RDF xmlns:rdf="http://www.w3.org/1999/02/22-rdf-syntax-ns#">
      <rdf:Description rdf:about=""/>
   </rdf:RDF>
</x:xmpmeta>
                                                                                                    
                                                                                                    
                                                                                                    
                                                                                                    
                                                                                                    
                                                                                                    
                                                                                                    
                                                                                                    
                                                                                                    
                                                                                                    
                                                                                                    
                                                                                                    
                                                                                                    
                                                                                                    
                                                                                                    
                                                                                                    
                                                                                                    
                                                                                                    
                                                                                                    
                                                                                                    
                           
<?xpacket end="w"?></metadata>
<defs>
    <style>
      .cls-1 {
        fill: #eba318;
        fill-rule: evenodd;
      }
    </style>
  </defs>
  <path id="实名" class="cls-1" d="M816.622,1004H816.6a0.642,0.642,0,0,1-.433-0.2,0.66,0.66,0,0,1-.162-0.46,9.282,9.282,0,0,1,6.579-8.492,0.627,0.627,0,0,1,.355,1.2,8.03,8.03,0,0,0-5.691,7.35,0.62,0.62,0,0,1-.621.6m14.038-5.339a0.618,0.618,0,0,1-.467-0.212,7.961,7.961,0,0,0-3.7-2.391,0.627,0.627,0,0,1,.357-1.2,9.2,9.2,0,0,1,4.273,2.766,0.632,0.632,0,0,1-.056.886,0.62,0.62,0,0,1-.411.156m-5.952-2.289a4.691,4.691,0,1,1,4.647-4.687,4.667,4.667,0,0,1-4.647,4.687m0-8.12a3.435,3.435,0,1,0,3.4,3.433,3.416,3.416,0,0,0-3.4-3.433m3.9,15.715a0.616,0.616,0,0,1-.441-0.19l-2.527-2.55a0.626,0.626,0,0,1,.88-0.89l2.087,2.11,4.314-4.352a0.62,0.62,0,0,1,.867.016,0.627,0.627,0,0,1,.012.871l-4.753,4.795a0.605,0.605,0,0,1-.44.18" transform="translate(-816 -987)"/>
</svg>
