<svg xmlns="http://www.w3.org/2000/svg" width="14" height="16.03" viewBox="0 0 14 16.03">
  <metadata><?xpacket begin="﻿" id="W5M0MpCehiHzreSzNTczkc9d"?>
<x:xmpmeta xmlns:x="adobe:ns:meta/" x:xmptk="Adobe XMP Core 5.6-c142 79.160924, 2017/07/13-01:06:39        ">
   <rdf:RDF xmlns:rdf="http://www.w3.org/1999/02/22-rdf-syntax-ns#">
      <rdf:Description rdf:about=""/>
   </rdf:RDF>
</x:xmpmeta>
                                                                                                    
                                                                                                    
                                                                                                    
                                                                                                    
                                                                                                    
                                                                                                    
                                                                                                    
                                                                                                    
                                                                                                    
                                                                                                    
                                                                                                    
                                                                                                    
                                                                                                    
                                                                                                    
                                                                                                    
                                                                                                    
                                                                                                    
                                                                                                    
                                                                                                    
                                                                                                    
                           
<?xpacket end="w"?></metadata>
<defs>
    <style>
      .cls-1 {
        fill: #595959;
        fill-rule: evenodd;
        opacity: 0.5;
      }
    </style>
  </defs>
  <path id="授权" class="cls-1" d="M2065.76,2206.78a0.842,0.842,0,0,1-.47.22,0.7,0.7,0,0,1-.48-0.22l-2.6-3.05a0.674,0.674,0,0,1,0-.98,0.513,0.513,0,0,1,.87,0l2.21,2.51,4.6-5.02a0.513,0.513,0,0,1,.87,0,0.674,0.674,0,0,1,0,.98Zm5.89-3.79a0.705,0.705,0,0,1,.35.61v3.31a0.62,0.62,0,0,1-.04.23c-0.52,1.55-4.02,4.2-5.73,4.64-0.09.02-.58,0.16-0.7,0.18a3.076,3.076,0,0,1-.53.04c-1.99,0-6.07-2.85-6.93-4.8a0.717,0.717,0,0,1-.06-0.29v-7.71a0.784,0.784,0,0,1,.11-0.54,0.736,0.736,0,0,1,.46-0.29,10.083,10.083,0,0,0,1.09-.24,20.532,20.532,0,0,0,4.21-1.64c0.24-.13.49-0.26,0.72-0.41a0.722,0.722,0,0,1,.75,0,2.438,2.438,0,0,0,.25.14c0.23,0.12.51,0.27,0.85,0.42a31.443,31.443,0,0,0,3.66,1.42,10.278,10.278,0,0,0,1.29.31,0.713,0.713,0,0,1,.56.67,0.672,0.672,0,0,1,.04.24l-1.4.36h0c-0.31-.07-0.62-0.15-0.93-0.25a33.07,33.07,0,0,1-3.81-1.47c-0.36-.17-0.65-0.32-0.87-0.43-0.13.07-.29,0.15-0.47,0.25a22.478,22.478,0,0,1-4.49,1.75c-0.21.05-.42,0.11-0.63,0.15v7.11c0.79,1.47,4.22,3.85,5.6,3.85a1.468,1.468,0,0,0,.27-0.02c0.06-.01.47-0.13,0.61-0.16,1.26-.33,4.23-2.55,4.72-3.64v-3.18A0.7,0.7,0,0,1,2071.65,2202.99Z" transform="translate(-2058 -2195.97)"/>
</svg>
