<svg xmlns="http://www.w3.org/2000/svg" width="16.03" height="17" viewBox="0 0 16.03 17">
  <metadata><?xpacket begin="﻿" id="W5M0MpCehiHzreSzNTczkc9d"?>
<x:xmpmeta xmlns:x="adobe:ns:meta/" x:xmptk="Adobe XMP Core 5.6-c142 79.160924, 2017/07/13-01:06:39        ">
   <rdf:RDF xmlns:rdf="http://www.w3.org/1999/02/22-rdf-syntax-ns#">
      <rdf:Description rdf:about=""/>
   </rdf:RDF>
</x:xmpmeta>
                                                                                                    
                                                                                                    
                                                                                                    
                                                                                                    
                                                                                                    
                                                                                                    
                                                                                                    
                                                                                                    
                                                                                                    
                                                                                                    
                                                                                                    
                                                                                                    
                                                                                                    
                                                                                                    
                                                                                                    
                                                                                                    
                                                                                                    
                                                                                                    
                                                                                                    
                                                                                                    
                           
<?xpacket end="w"?></metadata>
<defs>
    <style>
      .cls-1 {
        fill: rgba(0, 0, 0, 0.25);
        fill-rule: evenodd;
      }
    </style>
  </defs>
  <path id="搜索" class="cls-1" d="M2952.83,810.822a0.577,0.577,0,0,1-.41.176,0.56,0.56,0,0,1-.41-0.176l-2.35-2.4a6.883,6.883,0,0,0,.86-0.8l2.31,2.352a0.627,0.627,0,0,1,0,.848h0Zm-8.19-1.025a7.9,7.9,0,1,1,7.65-7.9,7.773,7.773,0,0,1-7.65,7.9h0Zm0-14.362a6.466,6.466,0,1,0,6.26,6.463,6.359,6.359,0,0,0-6.26-6.463h0Zm0,0" transform="translate(-2937 -794)"/>
</svg>
