<svg xmlns="http://www.w3.org/2000/svg" width="20" height="20" viewBox="0 0 20 20">
  <metadata><?xpacket begin="﻿" id="W5M0MpCehiHzreSzNTczkc9d"?>
<x:xmpmeta xmlns:x="adobe:ns:meta/" x:xmptk="Adobe XMP Core 5.6-c142 79.160924, 2017/07/13-01:06:39        ">
   <rdf:RDF xmlns:rdf="http://www.w3.org/1999/02/22-rdf-syntax-ns#">
      <rdf:Description rdf:about=""/>
   </rdf:RDF>
</x:xmpmeta>
                                                                                                    
                                                                                                    
                                                                                                    
                                                                                                    
                                                                                                    
                                                                                                    
                                                                                                    
                                                                                                    
                                                                                                    
                                                                                                    
                                                                                                    
                                                                                                    
                                                                                                    
                                                                                                    
                                                                                                    
                                                                                                    
                                                                                                    
                                                                                                    
                                                                                                    
                                                                                                    
                           
<?xpacket end="w"?></metadata>
<defs>
    <style>
      .cls-1 {

        fill-rule: evenodd;
      }
    </style>
  </defs>
  <path id="系统" class="cls-1" d="M57.122,1220.65l-0.194.34a2.119,2.119,0,0,0,.112,2.14l0.677,1.1a2.132,2.132,0,0,0,.843.85,2.245,2.245,0,0,0,1.021.28h0.4l0.052,2.28h-0.4a2.011,2.011,0,0,0-1.834,1.24,4.11,4.11,0,0,1-.232.47,3.467,3.467,0,0,1-.277.43,2.027,2.027,0,0,0-.111,2.22l0.208,0.35-1.974,1.14-0.209-.34a2.031,2.031,0,0,0-.769-0.73,2.123,2.123,0,0,0-1.158-.29h-1.3a2.1,2.1,0,0,0-1.88,1.02l-0.194.34-2.027-1.14,0.193-.34a2.119,2.119,0,0,0-.113-2.14l-0.675-1.1a2.216,2.216,0,0,0-.845-0.85,2.112,2.112,0,0,0-1.02-.27h-0.4l-0.053-2.28h0.4a2.036,2.036,0,0,0,1.833-1.25s0.075-.18.233-0.47a3.7,3.7,0,0,1,.275-0.43,2.026,2.026,0,0,0,.113-2.22l-0.208-.35,1.975-1.14,0.206,0.34a2.18,2.18,0,0,0,1.927,1.01l1.3,0.01a2.12,2.12,0,0,0,1.882-1.02l0.193-.34,2.027,1.14m-6.288,8.81a3.4,3.4,0,1,0-1.374-4.67,3.444,3.444,0,0,0,1.374,4.67m7.35-9.52-3.04-1.7a0.566,0.566,0,0,0-.784.21l-0.471.83a1,1,0,0,1-.855.45H51.656a0.981,0.981,0,0,1-.538-0.14,0.815,0.815,0,0,1-.335-0.31l-0.508-.83a0.61,0.61,0,0,0-.214-0.21,0.575,0.575,0,0,0-.581,0l-2.962,1.71a0.563,0.563,0,0,0-.193.78l0.508,0.84a0.892,0.892,0,0,1-.047.94,4.893,4.893,0,0,0-.366.57,5.159,5.159,0,0,0-.3.61,0.881,0.881,0,0,1-.78.53H44.362a0.571,0.571,0,0,0-.566.58l0.079,3.42a0.581,0.581,0,0,0,.3.49,0.569,0.569,0,0,0,.288.08h0.98a0.9,0.9,0,0,1,.439.12,1.03,1.03,0,0,1,.392.39l0.716,1.18a0.966,0.966,0,0,1,.067.96l-0.471.84a0.578,0.578,0,0,0,.229.78l3.041,1.7a0.572,0.572,0,0,0,.784-0.2l0.471-.84a0.971,0.971,0,0,1,.854-0.45l1.377,0.01a0.891,0.891,0,0,1,.538.13,0.809,0.809,0,0,1,.336.31l0.508,0.83a0.6,0.6,0,0,0,.215.21,0.57,0.57,0,0,0,.578,0l2.962-1.71a0.562,0.562,0,0,0,.194-0.78l-0.508-.84a0.894,0.894,0,0,1,.047-0.94,4.755,4.755,0,0,0,.367-0.57,5.134,5.134,0,0,0,.3-0.61,0.9,0.9,0,0,1,.779-0.53h0.98a0.565,0.565,0,0,0,.565-0.58l-0.079-3.42a0.6,0.6,0,0,0-.591-0.57H59.556a0.9,0.9,0,0,1-.439-0.12,1.032,1.032,0,0,1-.392-0.39l-0.717-1.18a0.965,0.965,0,0,1-.065-0.96l0.471-.84a0.579,0.579,0,0,0-.229-0.78h0Zm-6.794,8.54a2.271,2.271,0,1,1,3.137-.84,2.3,2.3,0,0,1-3.137.84h0Zm0,0" transform="translate(-42.5 -1216.5)"/>
</svg>
