<svg xmlns="http://www.w3.org/2000/svg" width="16" height="16" viewBox="0 0 16 16">
  <metadata><?xpacket begin="﻿" id="W5M0MpCehiHzreSzNTczkc9d"?>
<x:xmpmeta xmlns:x="adobe:ns:meta/" x:xmptk="Adobe XMP Core 5.6-c142 79.160924, 2017/07/13-01:06:39        ">
   <rdf:RDF xmlns:rdf="http://www.w3.org/1999/02/22-rdf-syntax-ns#">
      <rdf:Description rdf:about=""/>
   </rdf:RDF>
</x:xmpmeta>
                                                                                                    
                                                                                                    
                                                                                                    
                                                                                                    
                                                                                                    
                                                                                                    
                                                                                                    
                                                                                                    
                                                                                                    
                                                                                                    
                                                                                                    
                                                                                                    
                                                                                                    
                                                                                                    
                                                                                                    
                                                                                                    
                                                                                                    
                                                                                                    
                                                                                                    
                                                                                                    
                           
<?xpacket end="w"?></metadata>
<defs>
    <style>
      .cls-1 {
        fill: #3f4142;
        fill-rule: evenodd;
      }
    </style>
  </defs>
  <path id="退出" class="cls-1" d="M3352.41,794.324A8,8,0,0,1,3348,809h-0.12a8,8,0,0,1-4.65-14.421,0.886,0.886,0,0,1,1.44.6,0.87,0.87,0,0,1-.38.825,6.224,6.224,0,0,0,3.62,11.218,6.225,6.225,0,0,0,3.52-11.417,0.89,0.89,0,0,1,.98-1.482h0Zm-4.41,7.565a0.89,0.89,0,0,1-.89-0.889v-7.111a0.89,0.89,0,0,1,1.78,0V801a0.89,0.89,0,0,1-.89.889h0Zm0,0" transform="translate(-3340 -793)"/>
</svg>
