<svg xmlns="http://www.w3.org/2000/svg" width="20" height="20" viewBox="0 0 20 20">
  <metadata><?xpacket begin="﻿" id="W5M0MpCehiHzreSzNTczkc9d"?>
<x:xmpmeta xmlns:x="adobe:ns:meta/" x:xmptk="Adobe XMP Core 5.6-c142 79.160924, 2017/07/13-01:06:39        ">
   <rdf:RDF xmlns:rdf="http://www.w3.org/1999/02/22-rdf-syntax-ns#">
      <rdf:Description rdf:about=""/>
   </rdf:RDF>
</x:xmpmeta>
                                                                                                    
                                                                                                    
                                                                                                    
                                                                                                    
                                                                                                    
                                                                                                    
                                                                                                    
                                                                                                    
                                                                                                    
                                                                                                    
                                                                                                    
                                                                                                    
                                                                                                    
                                                                                                    
                                                                                                    
                                                                                                    
                                                                                                    
                                                                                                    
                                                                                                    
                                                                                                    
                           
<?xpacket end="w"?></metadata>
<defs>
    <style>
      .cls-1 {

        fill-rule: evenodd;
      }
    </style>
  </defs>
  <path id="用户" class="cls-1" d="M56.509,1055.51a8.505,8.505,0,0,1-10.4,1.27,0.59,0.59,0,1,1,.612-1.01,7.322,7.322,0,1,0-3.537-6.27,7.3,7.3,0,0,0,1.183,3.99,0.592,0.592,0,0,1-.991.65A8.5,8.5,0,1,1,56.509,1055.51Zm-1.212-1.58a0.591,0.591,0,0,1-1.183,0,3.636,3.636,0,1,0-7.271,0,0.591,0.591,0,0,1-1.183,0h0a4.829,4.829,0,0,1,2.9-4.42,3.442,3.442,0,1,1,3.837,0A4.829,4.829,0,0,1,55.3,1053.93Zm-2.56-7.27a2.259,2.259,0,1,0-2.258,2.26A2.259,2.259,0,0,0,52.737,1046.66Z" transform="translate(-40.5 -1039.5)"/>
</svg>
