<svg xmlns="http://www.w3.org/2000/svg" width="17" height="19" viewBox="0 0 17 19">
  <metadata><?xpacket begin="﻿" id="W5M0MpCehiHzreSzNTczkc9d"?>
<x:xmpmeta xmlns:x="adobe:ns:meta/" x:xmptk="Adobe XMP Core 5.6-c142 79.160924, 2017/07/13-01:06:39        ">
   <rdf:RDF xmlns:rdf="http://www.w3.org/1999/02/22-rdf-syntax-ns#">
      <rdf:Description rdf:about=""/>
   </rdf:RDF>
</x:xmpmeta>
                                                                                                    
                                                                                                    
                                                                                                    
                                                                                                    
                                                                                                    
                                                                                                    
                                                                                                    
                                                                                                    
                                                                                                    
                                                                                                    
                                                                                                    
                                                                                                    
                                                                                                    
                                                                                                    
                                                                                                    
                                                                                                    
                                                                                                    
                                                                                                    
                                                                                                    
                                                                                                    
                           
<?xpacket end="w"?></metadata>
<defs>
    <style>
      .cls-1 {
        fill: #f3b725;
        fill-rule: evenodd;
      }
    </style>
  </defs>
  <path id="文件夹" class="cls-1" d="M3700.25,1318a1.383,1.383,0,0,1-1.37-1.39l0.01-2.61h-11.14a1.716,1.716,0,0,0-1.75,1.7v15.6a1.716,1.716,0,0,0,1.75,1.7h13.5a1.716,1.716,0,0,0,1.75-1.7v-13.24Zm-7.45-1.12h-1.7v1.15h1.7v1.15h-1.7v1.15h1.7v1.15h-1.7v1.16h1.7v5.18a0.583,0.583,0,0,1-.17.41,0.576,0.576,0,0,1-.4.16h-2.26a0.563,0.563,0,0,1-.57-0.57v-4.03h1.7v-1.15h-1.7v-1.16h1.7v-1.15h-1.7v-1.15h1.7v-1.15h-1.7v-1.15h1.7v-1.15h1.7v1.15Z" transform="translate(-3686 -1314)"/>
</svg>
