<svg xmlns="http://www.w3.org/2000/svg" width="18" height="18" viewBox="0 0 18 18">
  <metadata><?xpacket begin="﻿" id="W5M0MpCehiHzreSzNTczkc9d"?>
<x:xmpmeta xmlns:x="adobe:ns:meta/" x:xmptk="Adobe XMP Core 5.6-c142 79.160924, 2017/07/13-01:06:39        ">
   <rdf:RDF xmlns:rdf="http://www.w3.org/1999/02/22-rdf-syntax-ns#">
      <rdf:Description rdf:about=""/>
   </rdf:RDF>
</x:xmpmeta>
                                                                                                    
                                                                                                    
                                                                                                    
                                                                                                    
                                                                                                    
                                                                                                    
                                                                                                    
                                                                                                    
                                                                                                    
                                                                                                    
                                                                                                    
                                                                                                    
                                                                                                    
                                                                                                    
                                                                                                    
                                                                                                    
                                                                                                    
                                                                                                    
                                                                                                    
                                                                                                    
                           
<?xpacket end="w"?></metadata>
<defs>
    <style>
      .cls-1 {
        fill: #9d91f7;
        fill-rule: evenodd;
      }
    </style>
  </defs>
  <path id="下载" class="cls-1" d="M832.325,883.316a2.275,2.275,0,0,1-1.688.684H817.362a2.273,2.273,0,0,1-1.687-.684,2.332,2.332,0,0,1-.675-1.708v-3.3a0.874,0.874,0,0,1,.225-0.57,0.808,0.808,0,0,1,1.125,0,0.879,0.879,0,0,1,.225.57v3.3a1.228,1.228,0,0,0,.225.683,0.942,0.942,0,0,0,.675.228h13.05a1.2,1.2,0,0,0,.675-0.228,0.973,0.973,0,0,0,.225-0.683v-3.3a0.874,0.874,0,0,1,.225-0.57,0.808,0.808,0,0,1,1.125,0,0.879,0.879,0,0,1,.225.57v3.3A2.332,2.332,0,0,1,832.325,883.316Zm-7.763-4.443a0.851,0.851,0,0,1-.562.228,0.968,0.968,0,0,1-.675-0.342l-4.05-4.1a0.874,0.874,0,0,1-.225-0.569,0.888,0.888,0,0,1,.337-0.456,0.856,0.856,0,0,1,.563-0.228,1.6,1.6,0,0,1,.45.228l2.587,2.848H823.1a0.111,0.111,0,0,0,.112-0.114V866.8a0.879,0.879,0,0,1,.225-0.569A0.856,0.856,0,0,1,824,866a0.409,0.409,0,0,1,.337.114,0.874,0.874,0,0,1,.225.569v9.684a0.111,0.111,0,0,0,.113.114h0.112l2.7-2.848a0.7,0.7,0,0,1,.45-0.342,0.856,0.856,0,0,1,.563.228,0.833,0.833,0,0,1,0,1.139Z" transform="translate(-815 -866)"/>
</svg>
