<svg xmlns="http://www.w3.org/2000/svg" width="18" height="18" viewBox="0 0 16 16">
  <metadata><?xpacket begin="﻿" id="W5M0MpCehiHzreSzNTczkc9d"?>
<x:xmpmeta xmlns:x="adobe:ns:meta/" x:xmptk="Adobe XMP Core 5.6-c142 79.160924, 2017/07/13-01:06:39        ">
   <rdf:RDF xmlns:rdf="http://www.w3.org/1999/02/22-rdf-syntax-ns#">
      <rdf:Description rdf:about=""/>
   </rdf:RDF>
</x:xmpmeta>
                                                                                                    
                                                                                                    
                                                                                                    
                                                                                                    
                                                                                                    
                                                                                                    
                                                                                                    
                                                                                                    
                                                                                                    
                                                                                                    
                                                                                                    
                                                                                                    
                                                                                                    
                                                                                                    
                                                                                                    
                                                                                                    
                                                                                                    
                                                                                                    
                                                                                                    
                                                                                                    
                           
<?xpacket end="w"?></metadata>
<defs>
    <style>
      .cls-1 {
        fill: #fc0;
        fill-rule: evenodd;
      }
    </style>
  </defs>
  <path id="应用" class="cls-1" d="M452.277,990.231a0.529,0.529,0,0,1,.492.492v3.938a0.529,0.529,0,0,1-.492.493h-3.939a0.529,0.529,0,0,1-.492-0.493v-3.938a0.529,0.529,0,0,1,.492-0.492h3.939m-8.615,0a0.53,0.53,0,0,1,.492.492v3.938a0.53,0.53,0,0,1-.492.493h-3.939a0.53,0.53,0,0,1-.493-0.493v-3.938a0.53,0.53,0,0,1,.493-0.492h3.939m8.615,8.615a0.529,0.529,0,0,1,.492.492v3.942a0.532,0.532,0,0,1-.492.49h-3.939a0.532,0.532,0,0,1-.492-0.49v-3.942a0.529,0.529,0,0,1,.492-0.492h3.939m-8.615,0a0.53,0.53,0,0,1,.492.492v3.942a0.533,0.533,0,0,1-.492.49h-3.939a0.533,0.533,0,0,1-.493-0.49v-3.942a0.53,0.53,0,0,1,.493-0.492h3.939M452.277,989h-3.939a1.682,1.682,0,0,0-1.723,1.723v3.938a1.682,1.682,0,0,0,1.723,1.723h3.939A1.683,1.683,0,0,0,454,994.661v-3.938A1.683,1.683,0,0,0,452.277,989h0Zm-8.615,0h-3.939A1.682,1.682,0,0,0,438,990.723v3.938a1.682,1.682,0,0,0,1.723,1.723h3.939a1.682,1.682,0,0,0,1.722-1.723v-3.938A1.682,1.682,0,0,0,443.662,989h0Zm8.615,8.615h-3.939a1.683,1.683,0,0,0-1.723,1.723v3.942a1.682,1.682,0,0,0,1.723,1.72h3.939a1.683,1.683,0,0,0,1.723-1.72v-3.942a1.683,1.683,0,0,0-1.723-1.723h0Zm-8.615,0h-3.939A1.683,1.683,0,0,0,438,999.338v3.942a1.682,1.682,0,0,0,1.723,1.72h3.939a1.682,1.682,0,0,0,1.722-1.72v-3.942a1.682,1.682,0,0,0-1.722-1.723h0Zm0,0" transform="translate(-438 -989)"/>
</svg>
