<svg xmlns="http://www.w3.org/2000/svg" width="18" height="13" viewBox="0 0 18 13">
  <metadata><?xpacket begin="﻿" id="W5M0MpCehiHzreSzNTczkc9d"?>
<x:xmpmeta xmlns:x="adobe:ns:meta/" x:xmptk="Adobe XMP Core 5.6-c142 79.160924, 2017/07/13-01:06:39        ">
   <rdf:RDF xmlns:rdf="http://www.w3.org/1999/02/22-rdf-syntax-ns#">
      <rdf:Description rdf:about=""/>
   </rdf:RDF>
</x:xmpmeta>
                                                                                                    
                                                                                                    
                                                                                                    
                                                                                                    
                                                                                                    
                                                                                                    
                                                                                                    
                                                                                                    
                                                                                                    
                                                                                                    
                                                                                                    
                                                                                                    
                                                                                                    
                                                                                                    
                                                                                                    
                                                                                                    
                                                                                                    
                                                                                                    
                                                                                                    
                                                                                                    
                           
<?xpacket end="w"?></metadata>
<defs>
    <style>
      .cls-1 {
        fill: #fc0;
        fill-rule: evenodd;
      }
    </style>
  </defs>
  <path id="阅读" class="cls-1" d="M1213,875.5a0.725,0.725,0,0,0-.03-0.207,1.308,1.308,0,0,0-.03-0.2l-0.02-.039c-0.01-.027-0.02-0.054-0.03-0.079a9.6,9.6,0,0,0-17.77-.022,0.419,0.419,0,0,0-.04.107l-0.02.03a0.726,0.726,0,0,0-.03.143l-0.03.207v0.116a0.894,0.894,0,0,1,.02.144l0.03,0.13a0.454,0.454,0,0,0,.03.112l0.03,0.074a9.6,9.6,0,0,0,17.76.039,0.639,0.639,0,0,0,.06-0.127,0.589,0.589,0,0,0,.04-0.186,1.274,1.274,0,0,0,.03-0.243h0Zm-1.21.043s0,0.006-.01.009v0.026a8.4,8.4,0,0,1-15.56-.007l-0.01-.031v-0.025c0-.007-0.01-0.015-0.01-0.022v-0.009a0.06,0.06,0,0,0,.01-0.04l0.01-.024a8.388,8.388,0,0,1,15.55,0,0.014,0.014,0,0,1,.01.015l0.01,0.016v0.094h0Zm-7.79-3a2.955,2.955,0,1,0,3,2.955,2.978,2.978,0,0,0-3-2.955h0Zm0,4.728a1.773,1.773,0,1,1,1.8-1.773,1.791,1.791,0,0,1-1.8,1.773h0Zm0,0" transform="translate(-1195 -869)"/>
</svg>
